<svg xmlns="http://www.w3.org/2000/svg" width="128" height="128" viewBox="0 0 128 128"><ellipse cx="64" cy="108" rx="39" ry="11" fill="#18354b" opacity=".32"/><path d="M35 101V61q29-18 58 0v40z" fill="#58717d" stroke="#203745" stroke-width="5"/><circle cx="64" cy="48" r="25" fill="#e8a06d" stroke="#203745" stroke-width="5"/><path d="M38 45q20-35 52 0v12H38z" fill="#8b9aa3" stroke="#203745" stroke-width="5"/><path d="M48 52h31" stroke="#dce9ed" stroke-width="6"/><circle cx="54" cy="61" r="3" fill="#203745"/><circle cx="74" cy="61" r="3" fill="#203745"/><path d="M46 92l-16 18M57 92l-8 21M70 92l7 21M81 92l17 18" stroke="#e4eef1" stroke-width="7" stroke-linecap="round"/><path d="M46 92l-16 18M57 92l-8 21M70 92l7 21M81 92l17 18" stroke="#43535e" stroke-width="3" stroke-linecap="round"/></svg>
